<?xml version="1.0" encoding="UTF-8"?>
<svg xmlns="http://www.w3.org/2000/svg" xmlns:xlink="http://www.w3.org/1999/xlink" width="230.258pt" height="125.459pt" viewBox="0 0 230.258 125.459" version="1.1">
<defs>
<clipPath id="clip1">
  <path d="M 176 38 L 230.257812 38 L 230.257812 42 L 176 42 Z M 176 38 "/>
</clipPath>
<clipPath id="clip2">
  <path d="M 47 114 L 70 114 L 70 125.460938 L 47 125.460938 Z M 47 114 "/>
</clipPath>
<clipPath id="clip3">
  <path d="M 73 54 L 194 54 L 194 125.460938 L 73 125.460938 Z M 73 54 "/>
</clipPath>
</defs>
<g id="surface1">
<path style="fill-rule:nonzero;fill:rgb(100%,100%,100%);fill-opacity:1;stroke-width:0.3985;stroke-linecap:butt;stroke-linejoin:miter;stroke:rgb(0%,0%,0%);stroke-opacity:1;stroke-miterlimit:10;" d="M 186.553875 -9.881438 L 153.608563 -9.881438 C 152.510906 -9.881438 151.616375 -10.775969 151.616375 -11.873625 L 151.616375 -44.818938 C 151.616375 -45.9205 152.510906 -46.811125 153.608563 -46.811125 L 186.553875 -46.811125 C 187.651531 -46.811125 188.546063 -45.9205 188.546063 -44.818938 L 188.546063 -11.873625 C 188.546063 -10.775969 187.651531 -9.881438 186.553875 -9.881438 Z M 186.553875 -9.881438 " transform="matrix(1,0,0,-1,1.993,68.517)"/>
<path style="fill:none;stroke-width:0.3985;stroke-linecap:butt;stroke-linejoin:miter;stroke:rgb(0%,0%,0%);stroke-opacity:1;stroke-miterlimit:10;" d="M 166.760906 -31.666594 L 173.401531 -31.666594 L 173.401531 -25.025969 L 166.760906 -25.025969 Z M 166.760906 -31.666594 " transform="matrix(1,0,0,-1,1.993,68.517)"/>
<path style="fill:none;stroke-width:0.99628;stroke-linecap:butt;stroke-linejoin:miter;stroke:rgb(0%,0%,0%);stroke-opacity:1;stroke-miterlimit:10;" d="M 1.991375 56.692781 L 37.639812 56.692781 " transform="matrix(1,0,0,-1,1.993,68.517)"/>
<path style=" stroke:none;fill-rule:nonzero;fill:rgb(0%,0%,0%);fill-opacity:1;" d="M 42.519531 11.824219 L 37.898438 9.511719 L 39.632812 11.824219 L 37.898438 14.132812 "/>
<path style=" stroke:none;fill-rule:nonzero;fill:rgb(0%,0%,0%);fill-opacity:1;" d="M 0 13.816406 L 3.984375 13.816406 L 3.984375 9.832031 L 0 9.832031 Z M 0 13.816406 "/>
<path style=" stroke:none;fill-rule:nonzero;fill:rgb(0%,0%,0%);fill-opacity:1;" d="M 42.519531 13.816406 L 46.503906 13.816406 L 46.503906 9.832031 L 42.519531 9.832031 Z M 42.519531 13.816406 "/>
<path style=" stroke:none;fill-rule:nonzero;fill:rgb(0%,0%,0%);fill-opacity:1;" d="M 0 13.816406 L 3.984375 13.816406 L 3.984375 9.832031 L 0 9.832031 Z M 0 13.816406 "/>
<path style=" stroke:none;fill-rule:nonzero;fill:rgb(0%,0%,0%);fill-opacity:1;" d="M 42.519531 13.816406 L 46.503906 13.816406 L 46.503906 9.832031 L 42.519531 9.832031 Z M 42.519531 13.816406 "/>
<path style="fill:none;stroke-width:0.99628;stroke-linecap:butt;stroke-linejoin:miter;stroke:rgb(88.233948%,46.665955%,7.450867%);stroke-opacity:1;stroke-miterlimit:10;" d="M 56.6945 56.692781 L 96.323406 56.692781 " transform="matrix(1,0,0,-1,1.993,68.517)"/>
<path style=" stroke:none;fill-rule:nonzero;fill:rgb(88.233948%,46.665955%,7.450867%);fill-opacity:1;" d="M 101.207031 11.824219 L 96.585938 9.511719 L 98.316406 11.824219 L 96.585938 14.132812 "/>
<path style="fill-rule:nonzero;fill:rgb(100%,100%,100%);fill-opacity:1;stroke-width:0.3985;stroke-linecap:butt;stroke-linejoin:miter;stroke:rgb(0%,0%,0%);stroke-opacity:1;stroke-miterlimit:10;" d="M 73.967938 56.692781 L 75.960125 58.684969 L 77.952313 56.692781 L 75.960125 54.700594 Z M 73.967938 56.692781 " transform="matrix(1,0,0,-1,1.993,68.517)"/>
<path style="fill-rule:nonzero;fill:rgb(100%,100%,100%);fill-opacity:1;stroke-width:0.3985;stroke-linecap:butt;stroke-linejoin:miter;stroke:rgb(0%,0%,0%);stroke-opacity:1;stroke-miterlimit:10;" d="M 81.940594 56.692781 C 81.940594 57.794344 81.046063 58.684969 79.9445 58.684969 C 78.846844 58.684969 77.952313 57.794344 77.952313 56.692781 C 77.952313 55.591219 78.846844 54.700594 79.9445 54.700594 C 81.046063 54.700594 81.940594 55.591219 81.940594 56.692781 Z M 81.940594 56.692781 " transform="matrix(1,0,0,-1,1.993,68.517)"/>
<path style="fill:none;stroke-width:0.99628;stroke-linecap:butt;stroke-linejoin:miter;stroke:rgb(58.036804%,71.763611%,84.313965%);stroke-opacity:1;stroke-miterlimit:10;" d="M 113.385906 56.692781 L 121.889813 56.692781 L 121.889813 46.731844 L 138.901531 46.731844 L 138.901531 56.692781 L 155.909344 56.692781 " transform="matrix(1,0,0,-1,1.993,68.517)"/>
<path style="fill:none;stroke-width:0.99628;stroke-linecap:butt;stroke-linejoin:miter;stroke:rgb(0%,0%,0%);stroke-opacity:1;stroke-miterlimit:10;" d="M 172.971844 48.188875 L 191.339031 48.188875 L 191.339031 65.196687 L 210.866375 65.196687 " transform="matrix(1,0,0,-1,1.993,68.517)"/>
<path style=" stroke:none;fill-rule:nonzero;fill:rgb(0%,0%,0%);fill-opacity:1;" d="M 172.074219 20.328125 L 176.695312 22.640625 L 174.964844 20.328125 L 176.695312 18.015625 "/>
<path style=" stroke:none;fill-rule:nonzero;fill:rgb(0%,0%,0%);fill-opacity:1;" d="M 209.972656 3.320312 L 214.59375 1.007812 L 212.859375 3.320312 L 214.59375 5.628906 "/>
<path style="fill-rule:nonzero;fill:rgb(100%,100%,100%);fill-opacity:1;stroke-width:0.3985;stroke-linecap:butt;stroke-linejoin:miter;stroke:rgb(0%,0%,0%);stroke-opacity:1;stroke-miterlimit:10;" d="M 183.979656 48.188875 C 183.979656 49.290437 183.085125 50.181062 181.987469 50.181062 C 180.885906 50.181062 179.995281 49.290437 179.995281 48.188875 C 179.995281 47.087312 180.885906 46.196687 181.987469 46.196687 C 183.085125 46.196687 183.979656 47.087312 183.979656 48.188875 Z M 183.979656 48.188875 " transform="matrix(1,0,0,-1,1.993,68.517)"/>
<path style="fill:none;stroke-width:2.98883;stroke-linecap:butt;stroke-linejoin:miter;stroke:rgb(0%,0%,0%);stroke-opacity:1;stroke-miterlimit:10;" d="M 1.991375 28.345125 L 48.823406 28.345125 " transform="matrix(1,0,0,-1,1.993,68.517)"/>
<path style=" stroke:none;fill-rule:nonzero;fill:rgb(0%,0%,0%);fill-opacity:1;" d="M 56.695312 40.171875 L 47.289062 35.46875 L 50.816406 40.171875 L 47.289062 44.871094 "/>
<path style="fill-rule:nonzero;fill:rgb(100%,100%,100%);fill-opacity:1;stroke-width:0.3985;stroke-linecap:butt;stroke-linejoin:miter;stroke:rgb(0%,0%,0%);stroke-opacity:1;stroke-miterlimit:10;" d="M 26.354656 28.345125 C 26.354656 29.446687 25.464031 30.341219 24.362469 30.341219 C 23.260906 30.341219 22.370281 29.446687 22.370281 28.345125 C 22.370281 27.247469 23.260906 26.352937 24.362469 26.352937 C 25.464031 26.352937 26.354656 27.247469 26.354656 28.345125 Z M 26.354656 28.345125 " transform="matrix(1,0,0,-1,1.993,68.517)"/>
<path style="fill-rule:nonzero;fill:rgb(100%,100%,100%);fill-opacity:1;stroke-width:0.3985;stroke-linecap:butt;stroke-linejoin:miter;stroke:rgb(0%,0%,0%);stroke-opacity:1;stroke-miterlimit:10;" d="M 26.354656 28.345125 L 28.346844 30.341219 L 30.339031 28.345125 L 28.346844 26.352937 Z M 26.354656 28.345125 " transform="matrix(1,0,0,-1,1.993,68.517)"/>
<path style="fill-rule:nonzero;fill:rgb(100%,100%,100%);fill-opacity:1;stroke-width:0.3985;stroke-linecap:butt;stroke-linejoin:miter;stroke:rgb(0%,0%,0%);stroke-opacity:1;stroke-miterlimit:10;" d="M 31.335125 27.349031 L 31.335125 29.341219 L 33.327312 29.341219 L 33.327312 27.349031 Z M 31.335125 27.349031 " transform="matrix(1,0,0,-1,1.993,68.517)"/>
<path style=" stroke:none;fill-rule:nonzero;fill:rgb(0%,0%,0%);fill-opacity:1;" d="M 0 42.164062 L 3.984375 42.164062 L 3.984375 38.175781 L 0 38.175781 Z M 0 42.164062 "/>
<path style=" stroke:none;fill-rule:nonzero;fill:rgb(0%,0%,0%);fill-opacity:1;" d="M 56.695312 42.164062 L 60.679688 42.164062 L 60.679688 38.175781 L 56.695312 38.175781 Z M 56.695312 42.164062 "/>
<path style="fill-rule:nonzero;fill:rgb(100%,100%,100%);fill-opacity:1;stroke-width:0.3985;stroke-linecap:butt;stroke-linejoin:miter;stroke:rgb(0%,0%,0%);stroke-opacity:1;stroke-miterlimit:10;" d="M 26.354656 28.345125 C 26.354656 29.446687 25.464031 30.341219 24.362469 30.341219 C 23.260906 30.341219 22.370281 29.446687 22.370281 28.345125 C 22.370281 27.247469 23.260906 26.352937 24.362469 26.352937 C 25.464031 26.352937 26.354656 27.247469 26.354656 28.345125 Z M 26.354656 28.345125 " transform="matrix(1,0,0,-1,1.993,68.517)"/>
<path style="fill-rule:nonzero;fill:rgb(100%,100%,100%);fill-opacity:1;stroke-width:0.3985;stroke-linecap:butt;stroke-linejoin:miter;stroke:rgb(0%,0%,0%);stroke-opacity:1;stroke-miterlimit:10;" d="M 26.354656 28.345125 L 28.346844 30.341219 L 30.339031 28.345125 L 28.346844 26.352937 Z M 26.354656 28.345125 " transform="matrix(1,0,0,-1,1.993,68.517)"/>
<path style="fill-rule:nonzero;fill:rgb(100%,100%,100%);fill-opacity:1;stroke-width:0.3985;stroke-linecap:butt;stroke-linejoin:miter;stroke:rgb(0%,0%,0%);stroke-opacity:1;stroke-miterlimit:10;" d="M 31.335125 27.349031 L 31.335125 29.341219 L 33.327312 29.341219 L 33.327312 27.349031 Z M 31.335125 27.349031 " transform="matrix(1,0,0,-1,1.993,68.517)"/>
<path style=" stroke:none;fill-rule:nonzero;fill:rgb(0%,0%,0%);fill-opacity:1;" d="M 0 42.164062 L 3.984375 42.164062 L 3.984375 38.175781 L 0 38.175781 Z M 0 42.164062 "/>
<path style=" stroke:none;fill-rule:nonzero;fill:rgb(0%,0%,0%);fill-opacity:1;" d="M 56.695312 42.164062 L 60.679688 42.164062 L 60.679688 38.175781 L 56.695312 38.175781 Z M 56.695312 42.164062 "/>
<path style="fill-rule:nonzero;fill:rgb(100%,100%,100%);fill-opacity:1;stroke-width:0.3985;stroke-linecap:butt;stroke-linejoin:miter;stroke:rgb(0%,0%,0%);stroke-opacity:1;stroke-miterlimit:10;" d="M 26.354656 28.345125 C 26.354656 29.446687 25.464031 30.341219 24.362469 30.341219 C 23.260906 30.341219 22.370281 29.446687 22.370281 28.345125 C 22.370281 27.247469 23.260906 26.352937 24.362469 26.352937 C 25.464031 26.352937 26.354656 27.247469 26.354656 28.345125 Z M 26.354656 28.345125 " transform="matrix(1,0,0,-1,1.993,68.517)"/>
<path style="fill-rule:nonzero;fill:rgb(100%,100%,100%);fill-opacity:1;stroke-width:0.3985;stroke-linecap:butt;stroke-linejoin:miter;stroke:rgb(0%,0%,0%);stroke-opacity:1;stroke-miterlimit:10;" d="M 26.354656 28.345125 L 28.346844 30.341219 L 30.339031 28.345125 L 28.346844 26.352937 Z M 26.354656 28.345125 " transform="matrix(1,0,0,-1,1.993,68.517)"/>
<path style="fill-rule:nonzero;fill:rgb(100%,100%,100%);fill-opacity:1;stroke-width:0.3985;stroke-linecap:butt;stroke-linejoin:miter;stroke:rgb(0%,0%,0%);stroke-opacity:1;stroke-miterlimit:10;" d="M 31.335125 27.349031 L 31.335125 29.341219 L 33.327312 29.341219 L 33.327312 27.349031 Z M 31.335125 27.349031 " transform="matrix(1,0,0,-1,1.993,68.517)"/>
<path style=" stroke:none;fill-rule:nonzero;fill:rgb(0%,0%,0%);fill-opacity:1;" d="M 0 42.164062 L 3.984375 42.164062 L 3.984375 38.175781 L 0 38.175781 Z M 0 42.164062 "/>
<path style=" stroke:none;fill-rule:nonzero;fill:rgb(0%,0%,0%);fill-opacity:1;" d="M 56.695312 42.164062 L 60.679688 42.164062 L 60.679688 38.175781 L 56.695312 38.175781 Z M 56.695312 42.164062 "/>
<path style="fill:none;stroke-width:2.98883;stroke-linecap:butt;stroke-linejoin:miter;stroke:rgb(86.274719%,86.274719%,7.841492%);stroke-opacity:1;stroke-miterlimit:10;" d="M 85.042156 28.345125 L 141.733563 28.345125 " transform="matrix(1,0,0,-1,1.993,68.517)"/>
<g clip-path="url(#clip1)" clip-rule="nonzero">
<path style="fill:none;stroke-width:2.98883;stroke-linecap:butt;stroke-linejoin:miter;stroke:rgb(0%,0%,0%);stroke-opacity:1;stroke-miterlimit:10;" d="M 175.960125 28.345125 L 226.772625 28.345125 " transform="matrix(1,0,0,-1,1.993,68.517)"/>
</g>
<path style=" stroke:none;fill-rule:nonzero;fill:rgb(0%,0%,0%);fill-opacity:1;" d="M 172.074219 40.171875 L 181.480469 44.871094 L 177.953125 40.171875 L 181.480469 35.46875 "/>
<path style="fill-rule:nonzero;fill:rgb(100%,100%,100%);fill-opacity:1;stroke-width:0.3985;stroke-linecap:butt;stroke-linejoin:miter;stroke:rgb(0%,0%,0%);stroke-opacity:1;stroke-miterlimit:10;" d="M 187.932781 28.345125 L 189.924969 30.341219 L 191.917156 28.345125 L 189.924969 26.352937 Z M 187.932781 28.345125 " transform="matrix(1,0,0,-1,1.993,68.517)"/>
<path style="fill:none;stroke-width:0.49814;stroke-linecap:butt;stroke-linejoin:miter;stroke:rgb(0%,0%,0%);stroke-opacity:1;stroke-dasharray:0.49814,0.99628;stroke-miterlimit:10;" d="M 28.346844 0.001375 L 28.346844 -34.018156 L 56.6945 -34.018156 L 56.6945 -52.604094 " transform="matrix(1,0,0,-1,1.993,68.517)"/>
<g clip-path="url(#clip2)" clip-rule="nonzero">
<path style="fill:none;stroke-width:0.49814;stroke-linecap:butt;stroke-linejoin:miter;stroke:rgb(0%,0%,0%);stroke-opacity:1;stroke-miterlimit:10;" d="M -0.00130625 -3.737401 L 3.736975 0.00088 L -0.00130625 3.735255 Z M -0.00130625 -3.737401 " transform="matrix(0,1,1,0,58.68662,121.1224)"/>
</g>
<g clip-path="url(#clip3)" clip-rule="nonzero">
<path style="fill:none;stroke-width:2.98883;stroke-linecap:butt;stroke-linejoin:miter;stroke:rgb(0%,0%,0%);stroke-opacity:1;stroke-miterlimit:10;" d="M 113.385906 -28.346281 L 149.257 -28.350188 " transform="matrix(1,0,0,-1,1.993,68.517)"/>
</g>
<path style=" stroke:none;fill-rule:nonzero;fill:rgb(0%,0%,0%);fill-opacity:1;" d="M 151.25 98.863281 L 155.234375 98.863281 L 155.234375 94.875 L 151.25 94.875 Z M 151.25 98.863281 "/>
<path style="fill:none;stroke-width:0.99628;stroke-linecap:butt;stroke-linejoin:miter;stroke:rgb(0%,0%,0%);stroke-opacity:1;stroke-miterlimit:10;" d="M 151.249188 -28.354094 L 163.671063 -28.346281 " transform="matrix(1,0,0,-1,1.993,68.517)"/>
<path style=" stroke:none;fill-rule:nonzero;fill:rgb(0%,0%,0%);fill-opacity:1;" d="M 168.554688 96.863281 L 163.929688 94.554688 L 165.664062 96.863281 L 163.933594 99.175781 "/>
</g>
</svg>
